<svg xmlns="http://www.w3.org/2000/svg" width="1920" height="1080">
  <path d="M1002,600L870,651L1001,751Z" fill="#c8c8c8" stroke="#c8c8c8" stroke-width="1.51"/>
  <path d="M870,651L913,796L1001,751Z" fill="#c5c5c5" stroke="#c5c5c5" stroke-width="1.51"/>
  <path d="M1002,600L858,486L870,651Z" fill="#cdcdcd" stroke="#cdcdcd" stroke-width="1.51"/>
  <path d="M870,651L750,765L913,796Z" fill="#c7c7c7" stroke="#c7c7c7" stroke-width="1.51"/>
  <path d="M722,587L750,765L870,651Z" fill="#cccccc" stroke="#cccccc" stroke-width="1.51"/>
  <path d="M1002,600L1025,447L858,486Z" fill="#cecece" stroke="#cecece" stroke-width="1.51"/>
  <path d="M1188,476L1025,447L1002,600Z" fill="#cccccc" stroke="#cccccc" stroke-width="1.51"/>
  <path d="M858,486L722,587L870,651Z" fill="#cfcfcf" stroke="#cfcfcf" stroke-width="1.51"/>
  <path d="M913,796L1020,953L1001,751Z" fill="#c0c0c0" stroke="#c0c0c0" stroke-width="1.51"/>
  <path d="M716,911L916,939L913,796Z" fill="#c1c1c1" stroke="#c1c1c1" stroke-width="1.51"/>
  <path d="M1001,751L1232,618L1002,600Z" fill="#c5c5c5" stroke="#c5c5c5" stroke-width="1.51"/>
  <path d="M1226,760L1232,618L1001,751Z" fill="#c1c1c1" stroke="#c1c1c1" stroke-width="1.51"/>
  <path d="M1161,965L1226,760L1001,751Z" fill="#bcbcbc" stroke="#bcbcbc" stroke-width="1.51"/>
  <path d="M916,939L1020,953L913,796Z" fill="#bebebe" stroke="#bebebe" stroke-width="1.51"/>
  <path d="M1232,618L1188,476L1002,600Z" fill="#c7c7c7" stroke="#c7c7c7" stroke-width="1.51"/>
  <path d="M750,765L716,911L913,796Z" fill="#c5c5c5" stroke="#c5c5c5" stroke-width="1.51"/>
  <path d="M585,748L716,911L750,765Z" fill="#c8c8c8" stroke="#c8c8c8" stroke-width="1.51"/>
  <path d="M858,486L719,426L722,587Z" fill="#d4d4d4" stroke="#d4d4d4" stroke-width="1.51"/>
  <path d="M722,587L585,748L750,765Z" fill="#cdcdcd" stroke="#cdcdcd" stroke-width="1.51"/>
  <path d="M732,305L719,426L858,486Z" fill="#d8d8d8" stroke="#d8d8d8" stroke-width="1.51"/>
  <path d="M1025,447L901,268L858,486Z" fill="#d4d4d4" stroke="#d4d4d4" stroke-width="1.51"/>
  <path d="M1188,476L1050,340L1025,447Z" fill="#cfcfcf" stroke="#cfcfcf" stroke-width="1.51"/>
  <path d="M1020,953L1161,965L1001,751Z" fill="#bbbbbb" stroke="#bbbbbb" stroke-width="1.51"/>
  <path d="M1232,618L1321,602L1188,476Z" fill="#c5c5c5" stroke="#c5c5c5" stroke-width="1.51"/>
  <path d="M1188,476L1169,329L1050,340Z" fill="#d0d0d0" stroke="#d0d0d0" stroke-width="1.51"/>
  <path d="M1226,760L1321,602L1232,618Z" fill="#c0c0c0" stroke="#c0c0c0" stroke-width="1.51"/>
  <path d="M1386,811L1321,602L1226,760Z" fill="#bcbcbc" stroke="#bcbcbc" stroke-width="1.51"/>
  <path d="M558,630L585,748L722,587Z" fill="#d1d1d1" stroke="#d1d1d1" stroke-width="1.51"/>
  <path d="M847,1083L1045,1054L916,939Z" fill="#b9b9b9" stroke="#b9b9b9" stroke-width="1.51"/>
  <path d="M916,939L1045,1054L1020,953Z" fill="#b9b9b9" stroke="#b9b9b9" stroke-width="1.51"/>
  <path d="M1020,953L1045,1054L1161,965Z" fill="#b7b7b7" stroke="#b7b7b7" stroke-width="1.51"/>
  <path d="M602,460L558,630L722,587Z" fill="#d5d5d5" stroke="#d5d5d5" stroke-width="1.51"/>
  <path d="M1330,322L1169,329L1188,476Z" fill="#cecece" stroke="#cecece" stroke-width="1.51"/>
  <path d="M1002,175L901,268L1050,340Z" fill="#d9d9d9" stroke="#d9d9d9" stroke-width="1.51"/>
  <path d="M1050,340L901,268L1025,447Z" fill="#d5d5d5" stroke="#d5d5d5" stroke-width="1.51"/>
  <path d="M719,426L602,460L722,587Z" fill="#d7d7d7" stroke="#d7d7d7" stroke-width="1.51"/>
  <path d="M596,324L602,460L719,426Z" fill="#dcdcdc" stroke="#dcdcdc" stroke-width="1.51"/>
  <path d="M716,911L760,1048L916,939Z" fill="#bfbfbf" stroke="#bfbfbf" stroke-width="1.51"/>
  <path d="M585,1101L760,1048L716,911Z" fill="#bfbfbf" stroke="#bfbfbf" stroke-width="1.51"/>
  <path d="M760,1048L847,1083L916,939Z" fill="#bbbbbb" stroke="#bbbbbb" stroke-width="1.51"/>
  <path d="M901,268L732,305L858,486Z" fill="#d9d9d9" stroke="#d9d9d9" stroke-width="1.51"/>
  <path d="M1198,1114L1325,923L1161,965Z" fill="#b2b2b2" stroke="#b2b2b2" stroke-width="1.51"/>
  <path d="M1161,965L1325,923L1226,760Z" fill="#b7b7b7" stroke="#b7b7b7" stroke-width="1.51"/>
  <path d="M1325,923L1386,811L1226,760Z" fill="#b8b8b8" stroke="#b8b8b8" stroke-width="1.51"/>
  <path d="M1321,602L1375,463L1188,476Z" fill="#c6c6c6" stroke="#c6c6c6" stroke-width="1.51"/>
  <path d="M1472,603L1375,463L1321,602Z" fill="#c2c2c2" stroke="#c2c2c2" stroke-width="1.51"/>
  <path d="M1045,1054L1198,1114L1161,965Z" fill="#b3b3b3" stroke="#b3b3b3" stroke-width="1.51"/>
  <path d="M1012,1213L1198,1114L1045,1054Z" fill="#b2b2b2" stroke="#b2b2b2" stroke-width="1.51"/>
  <path d="M441,425L398,655L558,630Z" fill="#d9d9d9" stroke="#d9d9d9" stroke-width="1.51"/>
  <path d="M732,305L596,324L719,426Z" fill="#dddddd" stroke="#dddddd" stroke-width="1.51"/>
  <path d="M720,181L596,324L732,305Z" fill="#e1e1e1" stroke="#e1e1e1" stroke-width="1.51"/>
  <path d="M901,268L720,181L732,305Z" fill="#dfdfdf" stroke="#dfdfdf" stroke-width="1.51"/>
  <path d="M1163,153L1002,175L1050,340Z" fill="#d9d9d9" stroke="#d9d9d9" stroke-width="1.51"/>
  <path d="M1163,153L1050,340L1169,329Z" fill="#d5d5d5" stroke="#d5d5d5" stroke-width="1.51"/>
  <path d="M585,748L533,967L716,911Z" fill="#c7c7c7" stroke="#c7c7c7" stroke-width="1.51"/>
  <path d="M872,1279L1012,1213L847,1083Z" fill="#b7b7b7" stroke="#b7b7b7" stroke-width="1.51"/>
  <path d="M441,803L533,967L585,748Z" fill="#cbcbcb" stroke="#cbcbcb" stroke-width="1.51"/>
  <path d="M1375,463L1330,322L1188,476Z" fill="#cacaca" stroke="#cacaca" stroke-width="1.51"/>
  <path d="M1386,811L1472,603L1321,602Z" fill="#bdbdbd" stroke="#bdbdbd" stroke-width="1.51"/>
  <path d="M1375,463L1495,281L1330,322Z" fill="#cacaca" stroke="#cacaca" stroke-width="1.51"/>
  <path d="M398,655L441,803L585,748Z" fill="#d1d1d1" stroke="#d1d1d1" stroke-width="1.51"/>
  <path d="M398,655L585,748L558,630Z" fill="#d2d2d2" stroke="#d2d2d2" stroke-width="1.51"/>
  <path d="M1002,175L879,150L901,268Z" fill="#dedede" stroke="#dedede" stroke-width="1.51"/>
  <path d="M847,1083L1012,1213L1045,1054Z" fill="#b5b5b5" stroke="#b5b5b5" stroke-width="1.51"/>
  <path d="M738,1234L847,1083L760,1048Z" fill="#bababa" stroke="#bababa" stroke-width="1.51"/>
  <path d="M879,150L720,181L901,268Z" fill="#e0e0e0" stroke="#e0e0e0" stroke-width="1.51"/>
  <path d="M441,425L558,630L602,460Z" fill="#dadada" stroke="#dadada" stroke-width="1.51"/>
  <path d="M1330,322L1163,153L1169,329Z" fill="#d3d3d3" stroke="#d3d3d3" stroke-width="1.51"/>
  <path d="M1002,175L1027,8L879,150Z" fill="#e1e1e1" stroke="#e1e1e1" stroke-width="1.51"/>
  <path d="M533,967L585,1101L716,911Z" fill="#c2c2c2" stroke="#c2c2c2" stroke-width="1.51"/>
  <path d="M393,1101L585,1101L533,967Z" fill="#c2c2c2" stroke="#c2c2c2" stroke-width="1.51"/>
  <path d="M1386,811L1522,737L1472,603Z" fill="#b9b9b9" stroke="#b9b9b9" stroke-width="1.51"/>
  <path d="M1541,923L1522,737L1386,811Z" fill="#b3b3b3" stroke="#b3b3b3" stroke-width="1.51"/>
  <path d="M1541,923L1386,811L1325,923Z" fill="#b3b3b3" stroke="#b3b3b3" stroke-width="1.51"/>
  <path d="M596,324L441,425L602,460Z" fill="#dedede" stroke="#dedede" stroke-width="1.51"/>
  <path d="M448,328L441,425L596,324Z" fill="#e1e1e1" stroke="#e1e1e1" stroke-width="1.51"/>
  <path d="M1198,1114L1358,1086L1325,923Z" fill="#afafaf" stroke="#afafaf" stroke-width="1.51"/>
  <path d="M1227,1213L1358,1086L1198,1114Z" fill="#aeaeae" stroke="#aeaeae" stroke-width="1.51"/>
  <path d="M1472,603L1497,471L1375,463Z" fill="#c2c2c2" stroke="#c2c2c2" stroke-width="1.51"/>
  <path d="M1330,322L1353,179L1163,153Z" fill="#d4d4d4" stroke="#d4d4d4" stroke-width="1.51"/>
  <path d="M1648,639L1497,471L1472,603Z" fill="#bebebe" stroke="#bebebe" stroke-width="1.51"/>
  <path d="M284,773L411,923L441,803Z" fill="#cfcfcf" stroke="#cfcfcf" stroke-width="1.51"/>
  <path d="M441,803L411,923L533,967Z" fill="#cacaca" stroke="#cacaca" stroke-width="1.51"/>
  <path d="M585,1101L738,1234L760,1048Z" fill="#bcbcbc" stroke="#bcbcbc" stroke-width="1.51"/>
  <path d="M1012,1213L1227,1213L1198,1114Z" fill="#b1b1b1" stroke="#b1b1b1" stroke-width="1.51"/>
  <path d="M1326,1264L1227,1213L1012,1213Z" fill="#b0b0b0" stroke="#b0b0b0" stroke-width="1.51"/>
  <path d="M738,1234L872,1279L847,1083Z" fill="#b9b9b9" stroke="#b9b9b9" stroke-width="1.51"/>
  <path d="M256,599L284,773L398,655Z" fill="#d8d8d8" stroke="#d8d8d8" stroke-width="1.51"/>
  <path d="M558,128L448,328L596,324Z" fill="#e5e5e5" stroke="#e5e5e5" stroke-width="1.51"/>
  <path d="M1495,281L1353,179L1330,322Z" fill="#cfcfcf" stroke="#cfcfcf" stroke-width="1.51"/>
  <path d="M1358,1086L1541,923L1325,923Z" fill="#afafaf" stroke="#afafaf" stroke-width="1.51"/>
  <path d="M1675,434L1495,281L1497,471Z" fill="#c5c5c5" stroke="#c5c5c5" stroke-width="1.51"/>
  <path d="M1528,1080L1541,923L1358,1086Z" fill="#ababab" stroke="#ababab" stroke-width="1.51"/>
  <path d="M1648,639L1472,603L1522,737Z" fill="#b9b9b9" stroke="#b9b9b9" stroke-width="1.51"/>
  <path d="M1497,471L1495,281L1375,463Z" fill="#c7c7c7" stroke="#c7c7c7" stroke-width="1.51"/>
  <path d="M879,150L708,8L720,181Z" fill="#e5e5e5" stroke="#e5e5e5" stroke-width="1.51"/>
  <path d="M720,181L558,128L596,324Z" fill="#e5e5e5" stroke="#e5e5e5" stroke-width="1.51"/>
  <path d="M1163,153L1027,8L1002,175Z" fill="#dedede" stroke="#dedede" stroke-width="1.51"/>
  <path d="M1191,19L1027,8L1163,153Z" fill="#dfdfdf" stroke="#dfdfdf" stroke-width="1.51"/>
  <path d="M708,8L558,128L720,181Z" fill="#e9e9e9" stroke="#e9e9e9" stroke-width="1.51"/>
  <path d="M398,655L284,773L441,803Z" fill="#d3d3d3" stroke="#d3d3d3" stroke-width="1.51"/>
  <path d="M284,475L398,655L441,425Z" fill="#dddddd" stroke="#dddddd" stroke-width="1.51"/>
  <path d="M738,1234L559,1239L872,1279Z" fill="#bbbbbb" stroke="#bbbbbb" stroke-width="1.51"/>
  <path d="M585,1101L559,1239L738,1234Z" fill="#bdbdbd" stroke="#bdbdbd" stroke-width="1.51"/>
  <path d="M393,1101L559,1239L585,1101Z" fill="#c0c0c0" stroke="#c0c0c0" stroke-width="1.51"/>
  <path d="M393,1101L533,967L411,923Z" fill="#c6c6c6" stroke="#c6c6c6" stroke-width="1.51"/>
  <path d="M1650,807L1648,639L1522,737Z" fill="#b5b5b5" stroke="#b5b5b5" stroke-width="1.51"/>
  <path d="M1227,1213L1326,1264L1358,1086Z" fill="#adadad" stroke="#adadad" stroke-width="1.51"/>
  <path d="M872,1279L1326,1264L1012,1213Z" fill="#b3b3b3" stroke="#b3b3b3" stroke-width="1.51"/>
  <path d="M1353,179L1191,19L1163,153Z" fill="#dadada" stroke="#dadada" stroke-width="1.51"/>
  <path d="M1350,5L1191,19L1353,179Z" fill="#dadada" stroke="#dadada" stroke-width="1.51"/>
  <path d="M261,340L284,475L441,425Z" fill="#e3e3e3" stroke="#e3e3e3" stroke-width="1.51"/>
  <path d="M261,340L441,425L448,328Z" fill="#e4e4e4" stroke="#e4e4e4" stroke-width="1.51"/>
  <path d="M1541,923L1650,807L1522,737Z" fill="#b1b1b1" stroke="#b1b1b1" stroke-width="1.51"/>
  <path d="M1545,1252L1528,1080L1358,1086Z" fill="#a9a9a9" stroke="#a9a9a9" stroke-width="1.51"/>
  <path d="M284,475L256,599L398,655Z" fill="#dcdcdc" stroke="#dcdcdc" stroke-width="1.51"/>
  <path d="M248,1076L393,1101L411,923Z" fill="#c7c7c7" stroke="#c7c7c7" stroke-width="1.51"/>
  <path d="M1626,922L1650,807L1541,923Z" fill="#aeaeae" stroke="#aeaeae" stroke-width="1.51"/>
  <path d="M845,-44L708,8L879,150Z" fill="#e8e8e8" stroke="#e8e8e8" stroke-width="1.51"/>
  <path d="M1528,1080L1626,922L1541,923Z" fill="#ababab" stroke="#ababab" stroke-width="1.51"/>
  <path d="M1027,8L845,-44L879,150Z" fill="#e5e5e5" stroke="#e5e5e5" stroke-width="1.51"/>
  <path d="M736,-156L845,-44L908,-190Z" fill="#e9e9e9" stroke="#e9e9e9" stroke-width="1.51"/>
  <path d="M537,24L419,177L558,128Z" fill="#ededed" stroke="#ededed" stroke-width="1.51"/>
  <path d="M558,128L419,177L448,328Z" fill="#e8e8e8" stroke="#e8e8e8" stroke-width="1.51"/>
  <path d="M1495,281L1470,120L1353,179Z" fill="#d1d1d1" stroke="#d1d1d1" stroke-width="1.51"/>
  <path d="M1662,188L1470,120L1495,281Z" fill="#cecece" stroke="#cecece" stroke-width="1.51"/>
  <path d="M284,773L240,925L411,923Z" fill="#cfcfcf" stroke="#cfcfcf" stroke-width="1.51"/>
  <path d="M118,937L240,925L74,795Z" fill="#d2d2d2" stroke="#d2d2d2" stroke-width="1.51"/>
  <path d="M1648,639L1675,434L1497,471Z" fill="#bebebe" stroke="#bebebe" stroke-width="1.51"/>
  <path d="M1808,627L1675,434L1648,639Z" fill="#b9b9b9" stroke="#b9b9b9" stroke-width="1.51"/>
  <path d="M419,177L261,340L448,328Z" fill="#e8e8e8" stroke="#e8e8e8" stroke-width="1.51"/>
  <path d="M74,488L71,594L256,599Z" fill="#e2e2e2" stroke="#e2e2e2" stroke-width="1.51"/>
  <path d="M74,795L240,925L284,773Z" fill="#d4d4d4" stroke="#d4d4d4" stroke-width="1.51"/>
  <path d="M708,8L537,24L558,128Z" fill="#ededed" stroke="#ededed" stroke-width="1.51"/>
  <path d="M419,177L219,186L261,340Z" fill="#ececec" stroke="#ececec" stroke-width="1.51"/>
  <path d="M577,-156L537,24L708,8Z" fill="#efefef" stroke="#efefef" stroke-width="1.51"/>
  <path d="M908,-190L845,-44L1027,8Z" fill="#e7e7e7" stroke="#e7e7e7" stroke-width="1.51"/>
  <path d="M1470,120L1350,5L1353,179Z" fill="#d7d7d7" stroke="#d7d7d7" stroke-width="1.51"/>
  <path d="M393,1101L441,1260L559,1239Z" fill="#c2c2c2" stroke="#c2c2c2" stroke-width="1.51"/>
  <path d="M559,1239L441,1260L872,1279Z" fill="#bebebe" stroke="#bebebe" stroke-width="1.51"/>
  <path d="M230,1271L441,1260L393,1101Z" fill="#c4c4c4" stroke="#c4c4c4" stroke-width="1.51"/>
  <path d="M240,925L248,1076L411,923Z" fill="#cacaca" stroke="#cacaca" stroke-width="1.51"/>
  <path d="M1528,1080L1656,1104L1626,922Z" fill="#a7a7a7" stroke="#a7a7a7" stroke-width="1.51"/>
  <path d="M1835,768L1648,639L1650,807Z" fill="#b2b2b2" stroke="#b2b2b2" stroke-width="1.51"/>
  <path d="M1835,768L1808,627L1648,639Z" fill="#b3b3b3" stroke="#b3b3b3" stroke-width="1.51"/>
  <path d="M1545,1252L1656,1104L1528,1080Z" fill="#a6a6a6" stroke="#a6a6a6" stroke-width="1.51"/>
  <path d="M1326,1264L1545,1252L1358,1086Z" fill="#aaaaaa" stroke="#aaaaaa" stroke-width="1.51"/>
  <path d="M1470,120L1474,8L1350,5Z" fill="#d8d8d8" stroke="#d8d8d8" stroke-width="1.51"/>
  <path d="M1675,434L1687,280L1495,281Z" fill="#c6c6c6" stroke="#c6c6c6" stroke-width="1.51"/>
  <path d="M1815,291L1687,280L1675,434Z" fill="#c3c3c3" stroke="#c3c3c3" stroke-width="1.51"/>
  <path d="M1673,8L1474,8L1470,120Z" fill="#d5d5d5" stroke="#d5d5d5" stroke-width="1.51"/>
  <path d="M908,-190L1027,8L1020,-198Z" fill="#e5e5e5" stroke="#e5e5e5" stroke-width="1.51"/>
  <path d="M1835,768L1650,807L1852,964Z" fill="#ababab" stroke="#ababab" stroke-width="1.51"/>
  <path d="M1687,280L1662,188L1495,281Z" fill="#cacaca" stroke="#cacaca" stroke-width="1.51"/>
  <path d="M1819,155L1662,188L1687,280Z" fill="#c9c9c9" stroke="#c9c9c9" stroke-width="1.51"/>
  <path d="M1027,8L1223,-174L1020,-198Z" fill="#e3e3e3" stroke="#e3e3e3" stroke-width="1.51"/>
  <path d="M845,-44L736,-156L708,8Z" fill="#ebebeb" stroke="#ebebeb" stroke-width="1.51"/>
  <path d="M1027,8L1191,19L1223,-174Z" fill="#e1e1e1" stroke="#e1e1e1" stroke-width="1.51"/>
  <path d="M414,-166L403,4L537,24Z" fill="#f3f3f3" stroke="#f3f3f3" stroke-width="1.51"/>
  <path d="M537,24L403,4L419,177Z" fill="#f0f0f0" stroke="#f0f0f0" stroke-width="1.51"/>
  <path d="M1223,-174L1191,19L1350,5Z" fill="#dfdfdf" stroke="#dfdfdf" stroke-width="1.51"/>
  <path d="M240,925L118,937L248,1076Z" fill="#cdcdcd" stroke="#cdcdcd" stroke-width="1.51"/>
  <path d="M74,795L284,773L256,599Z" fill="#d8d8d8" stroke="#d8d8d8" stroke-width="1.51"/>
  <path d="M74,488L256,599L284,475Z" fill="#e1e1e1" stroke="#e1e1e1" stroke-width="1.51"/>
  <path d="M403,4L219,186L419,177Z" fill="#f0f0f0" stroke="#f0f0f0" stroke-width="1.51"/>
  <path d="M1852,964L1650,807L1626,922Z" fill="#ababab" stroke="#ababab" stroke-width="1.51"/>
  <path d="M74,488L284,475L261,340Z" fill="#e5e5e5" stroke="#e5e5e5" stroke-width="1.51"/>
  <path d="M71,594L74,795L256,599Z" fill="#dddddd" stroke="#dddddd" stroke-width="1.51"/>
  <path d="M1366,-141L1223,-174L1350,5Z" fill="#dddddd" stroke="#dddddd" stroke-width="1.51"/>
  <path d="M76,271L74,488L261,340Z" fill="#eaeaea" stroke="#eaeaea" stroke-width="1.51"/>
  <path d="M1808,627L1839,495L1675,434Z" fill="#bababa" stroke="#bababa" stroke-width="1.51"/>
  <path d="M1953,650L1839,495L1808,627Z" fill="#b5b5b5" stroke="#b5b5b5" stroke-width="1.51"/>
  <path d="M1656,1104L1783,1050L1626,922Z" fill="#a6a6a6" stroke="#a6a6a6" stroke-width="1.51"/>
  <path d="M1793,1207L1783,1050L1656,1104Z" fill="#a2a2a2" stroke="#a2a2a2" stroke-width="1.51"/>
  <path d="M736,-156L577,-156L708,8Z" fill="#ededed" stroke="#ededed" stroke-width="1.51"/>
  <path d="M908,-190L577,-156L736,-156Z" fill="#ececec" stroke="#ececec" stroke-width="1.51"/>
  <path d="M1486,-128L1366,-141L1474,8Z" fill="#d9d9d9" stroke="#d9d9d9" stroke-width="1.51"/>
  <path d="M1474,8L1366,-141L1350,5Z" fill="#dbdbdb" stroke="#dbdbdb" stroke-width="1.51"/>
  <path d="M1545,1252L1673,1263L1656,1104Z" fill="#a5a5a5" stroke="#a5a5a5" stroke-width="1.51"/>
  <path d="M1326,1264L1673,1263L1545,1252Z" fill="#a8a8a8" stroke="#a8a8a8" stroke-width="1.51"/>
  <path d="M2004,1278L1673,1263L1326,1264Z" fill="#a4a4a4" stroke="#a4a4a4" stroke-width="1.51"/>
  <path d="M248,1076L230,1271L393,1101Z" fill="#c6c6c6" stroke="#c6c6c6" stroke-width="1.51"/>
  <path d="M118,937L119,1094L248,1076Z" fill="#cccccc" stroke="#cccccc" stroke-width="1.51"/>
  <path d="M-92,1048L119,1094L118,937Z" fill="#cfcfcf" stroke="#cfcfcf" stroke-width="1.51"/>
  <path d="M119,1094L230,1271L248,1076Z" fill="#c9c9c9" stroke="#c9c9c9" stroke-width="1.51"/>
  <path d="M441,1260L230,1271L872,1279Z" fill="#c0c0c0" stroke="#c0c0c0" stroke-width="1.51"/>
  <path d="M1673,8L1486,-128L1474,8Z" fill="#d7d7d7" stroke="#d7d7d7" stroke-width="1.51"/>
  <path d="M1839,495L1815,291L1675,434Z" fill="#bfbfbf" stroke="#bfbfbf" stroke-width="1.51"/>
  <path d="M1835,768L1953,650L1808,627Z" fill="#b1b1b1" stroke="#b1b1b1" stroke-width="1.51"/>
  <path d="M1783,1050L1852,964L1626,922Z" fill="#a6a6a6" stroke="#a6a6a6" stroke-width="1.51"/>
  <path d="M1985,956L1852,964L1966,1108Z" fill="#a1a1a1" stroke="#a1a1a1" stroke-width="1.51"/>
  <path d="M1366,-141L1640,-148L1223,-174Z" fill="#dadada" stroke="#dadada" stroke-width="1.51"/>
  <path d="M1673,8L1470,120L1662,188Z" fill="#d0d0d0" stroke="#d0d0d0" stroke-width="1.51"/>
  <path d="M219,186L76,271L261,340Z" fill="#ededed" stroke="#ededed" stroke-width="1.51"/>
  <path d="M-26,461L-43,641L71,594Z" fill="#e5e5e5" stroke="#e5e5e5" stroke-width="1.51"/>
  <path d="M122,128L76,271L219,186Z" fill="#f2f2f2" stroke="#f2f2f2" stroke-width="1.51"/>
  <path d="M250,-16L219,186L403,4Z" fill="#f5f5f5" stroke="#f5f5f5" stroke-width="1.51"/>
  <path d="M1819,155L1673,8L1662,188Z" fill="#cdcdcd" stroke="#cdcdcd" stroke-width="1.51"/>
  <path d="M414,-166L250,-16L403,4Z" fill="#f5f5f5" stroke="#f5f5f5" stroke-width="1.51"/>
  <path d="M1673,1263L1793,1207L1656,1104Z" fill="#a3a3a3" stroke="#a3a3a3" stroke-width="1.51"/>
  <path d="M1852,964L1945,757L1835,768Z" fill="#aaaaaa" stroke="#aaaaaa" stroke-width="1.51"/>
  <path d="M1839,495L1937,478L1815,291Z" fill="#bcbcbc" stroke="#bcbcbc" stroke-width="1.51"/>
  <path d="M1985,956L1945,757L1852,964Z" fill="#a6a6a6" stroke="#a6a6a6" stroke-width="1.51"/>
  <path d="M250,-16L122,128L219,186Z" fill="#f5f5f5" stroke="#f5f5f5" stroke-width="1.51"/>
  <path d="M1945,757L1953,650L1835,768Z" fill="#adadad" stroke="#adadad" stroke-width="1.51"/>
  <path d="M-26,461L71,594L74,488Z" fill="#e6e6e6" stroke="#e6e6e6" stroke-width="1.51"/>
  <path d="M71,594L-43,641L74,795Z" fill="#dfdfdf" stroke="#dfdfdf" stroke-width="1.51"/>
  <path d="M74,795L-71,935L118,937Z" fill="#d5d5d5" stroke="#d5d5d5" stroke-width="1.51"/>
  <path d="M577,-156L414,-166L537,24Z" fill="#f1f1f1" stroke="#f1f1f1" stroke-width="1.51"/>
  <path d="M908,-190L414,-166L577,-156Z" fill="#eeeeee" stroke="#eeeeee" stroke-width="1.51"/>
  <path d="M232,-175L414,-166L908,-190Z" fill="#f1f1f1" stroke="#f1f1f1" stroke-width="1.51"/>
  <path d="M1953,650L1937,478L1839,495Z" fill="#b5b5b5" stroke="#b5b5b5" stroke-width="1.51"/>
  <path d="M1815,291L1819,155L1687,280Z" fill="#c6c6c6" stroke="#c6c6c6" stroke-width="1.51"/>
  <path d="M-33,285L-26,461L76,271Z" fill="#efefef" stroke="#efefef" stroke-width="1.51"/>
  <path d="M76,271L-26,461L74,488Z" fill="#ebebeb" stroke="#ebebeb" stroke-width="1.51"/>
  <path d="M1970,334L1819,155L1815,291Z" fill="#c3c3c3" stroke="#c3c3c3" stroke-width="1.51"/>
  <path d="M-178,620L-63,780L-43,641Z" fill="#e0e0e0" stroke="#e0e0e0" stroke-width="1.51"/>
  <path d="M-43,641L-63,780L74,795Z" fill="#dddddd" stroke="#dddddd" stroke-width="1.51"/>
  <path d="M119,1094L89,1232L230,1271Z" fill="#cacaca" stroke="#cacaca" stroke-width="1.51"/>
  <path d="M-32,1236L89,1232L119,1094Z" fill="#cccccc" stroke="#cccccc" stroke-width="1.51"/>
  <path d="M-63,780L-71,935L74,795Z" fill="#d8d8d8" stroke="#d8d8d8" stroke-width="1.51"/>
  <path d="M-26,461L-178,620L-43,641Z" fill="#e4e4e4" stroke="#e4e4e4" stroke-width="1.51"/>
  <path d="M-56,132L-33,285L76,271Z" fill="#f4f4f4" stroke="#f4f4f4" stroke-width="1.51"/>
  <path d="M-56,132L76,271L122,128Z" fill="#f6f6f6" stroke="#f6f6f6" stroke-width="1.51"/>
  <path d="M2151,755L2149,604L1953,650Z" fill="#b0b0b0" stroke="#b0b0b0" stroke-width="1.51"/>
  <path d="M2110,312L1970,334L2148,434Z" fill="#bdbdbd" stroke="#bdbdbd" stroke-width="1.51"/>
  <path d="M1966,1108L1852,964L1783,1050Z" fill="#a1a1a1" stroke="#a1a1a1" stroke-width="1.51"/>
  <path d="M1937,478L1970,334L1815,291Z" fill="#bebebe" stroke="#bebebe" stroke-width="1.51"/>
  <path d="M2149,604L1937,478L1953,650Z" fill="#b4b4b4" stroke="#b4b4b4" stroke-width="1.51"/>
  <path d="M1839,-132L1640,-148L1673,8Z" fill="#d3d3d3" stroke="#d3d3d3" stroke-width="1.51"/>
  <path d="M1673,8L1640,-148L1486,-128Z" fill="#d6d6d6" stroke="#d6d6d6" stroke-width="1.51"/>
  <path d="M1486,-128L1640,-148L1366,-141Z" fill="#d8d8d8" stroke="#d8d8d8" stroke-width="1.51"/>
  <path d="M1223,-174L1995,-167L1020,-198Z" fill="#dadada" stroke="#dadada" stroke-width="1.51"/>
  <path d="M1831,20L1673,8L1819,155Z" fill="#cecece" stroke="#cecece" stroke-width="1.51"/>
  <path d="M2000,135L1831,20L1819,155Z" fill="#cacaca" stroke="#cacaca" stroke-width="1.51"/>
  <path d="M1793,1207L1966,1108L1783,1050Z" fill="#a0a0a0" stroke="#a0a0a0" stroke-width="1.51"/>
  <path d="M250,-16L92,-12L122,128Z" fill="#f9f9f9" stroke="#f9f9f9" stroke-width="1.51"/>
  <path d="M74,-131L92,-12L250,-16Z" fill="#fbfbfb" stroke="#fbfbfb" stroke-width="1.51"/>
  <path d="M-201,960L-92,1048L-71,935Z" fill="#d2d2d2" stroke="#d2d2d2" stroke-width="1.51"/>
  <path d="M-71,935L-92,1048L118,937Z" fill="#d2d2d2" stroke="#d2d2d2" stroke-width="1.51"/>
  <path d="M-201,960L-71,935L-63,780Z" fill="#d6d6d6" stroke="#d6d6d6" stroke-width="1.51"/>
  <path d="M1020,-198L232,-175L908,-190Z" fill="#ececec" stroke="#ececec" stroke-width="1.51"/>
  <path d="M414,-166L232,-175L250,-16Z" fill="#f7f7f7" stroke="#f7f7f7" stroke-width="1.51"/>
  <path d="M-217,474L-178,620L-26,461Z" fill="#e7e7e7" stroke="#e7e7e7" stroke-width="1.51"/>
  <path d="M-217,474L-26,461L-188,329Z" fill="#ebebeb" stroke="#ebebeb" stroke-width="1.51"/>
  <path d="M89,1232L-32,1236L230,1271Z" fill="#cbcbcb" stroke="#cbcbcb" stroke-width="1.51"/>
  <path d="M-92,1048L-32,1236L119,1094Z" fill="#cdcdcd" stroke="#cdcdcd" stroke-width="1.51"/>
  <path d="M92,-12L-56,132L122,128Z" fill="#f9f9f9" stroke="#f9f9f9" stroke-width="1.51"/>
  <path d="M-77,-18L-56,132L92,-12Z" fill="#fdfdfd" stroke="#fdfdfd" stroke-width="1.51"/>
  <path d="M1831,20L1839,-132L1673,8Z" fill="#d1d1d1" stroke="#d1d1d1" stroke-width="1.51"/>
  <path d="M1970,334L2000,135L1819,155Z" fill="#c4c4c4" stroke="#c4c4c4" stroke-width="1.51"/>
  <path d="M2110,312L2000,135L1970,334Z" fill="#c2c2c2" stroke="#c2c2c2" stroke-width="1.51"/>
  <path d="M-92,1048L-199,1099L-32,1236Z" fill="#cdcdcd" stroke="#cdcdcd" stroke-width="1.51"/>
  <path d="M-178,620L-228,746L-63,780Z" fill="#dedede" stroke="#dedede" stroke-width="1.51"/>
  <path d="M-217,474L-228,746L-178,620Z" fill="#e3e3e3" stroke="#e3e3e3" stroke-width="1.51"/>
  <path d="M-188,329L-26,461L-33,285Z" fill="#eeeeee" stroke="#eeeeee" stroke-width="1.51"/>
  <path d="M-228,746L-201,960L-63,780Z" fill="#d9d9d9" stroke="#d9d9d9" stroke-width="1.51"/>
  <path d="M232,-175L74,-131L250,-16Z" fill="#fafafa" stroke="#fafafa" stroke-width="1.51"/>
  <path d="M-171,154L-33,285L-56,132Z" fill="#f6f6f6" stroke="#f6f6f6" stroke-width="1.51"/>
  <path d="M-171,154L-188,329L-33,285Z" fill="#f3f3f3" stroke="#f3f3f3" stroke-width="1.51"/>
  <path d="M2151,755L1953,650L1945,757Z" fill="#adadad" stroke="#adadad" stroke-width="1.51"/>
  <path d="M2151,755L1945,757L1985,956Z" fill="#a9a9a9" stroke="#a9a9a9" stroke-width="1.51"/>
  <path d="M1998,-26L1839,-132L1831,20Z" fill="#cecece" stroke="#cecece" stroke-width="1.51"/>
  <path d="M1640,-148L1995,-167L1223,-174Z" fill="#d5d5d5" stroke="#d5d5d5" stroke-width="1.51"/>
  <path d="M2159,948L2151,755L1985,956Z" fill="#a6a6a6" stroke="#a6a6a6" stroke-width="1.51"/>
  <path d="M1966,1108L2123,1060L1985,956Z" fill="#9f9f9f" stroke="#9f9f9f" stroke-width="1.51"/>
  <path d="M1793,1207L2004,1278L1966,1108Z" fill="#9e9e9e" stroke="#9e9e9e" stroke-width="1.51"/>
  <path d="M1673,1263L2004,1278L1793,1207Z" fill="#a0a0a0" stroke="#a0a0a0" stroke-width="1.51"/>
  <path d="M872,1279L2004,1278L1326,1264Z" fill="#aaaaaa" stroke="#aaaaaa" stroke-width="1.51"/>
  <path d="M2148,434L1970,334L1937,478Z" fill="#bbbbbb" stroke="#bbbbbb" stroke-width="1.51"/>
  <path d="M2000,135L1998,-26L1831,20Z" fill="#cccccc" stroke="#cccccc" stroke-width="1.51"/>
  <path d="M2149,604L2148,434L1937,478Z" fill="#b7b7b7" stroke="#b7b7b7" stroke-width="1.51"/>
  <path d="M2277,491L2148,434L2149,604Z" fill="#b7b7b7" stroke="#b7b7b7" stroke-width="1.51"/>
  <path d="M-228,746L-199,1099L-201,960Z" fill="#d4d4d4" stroke="#d4d4d4" stroke-width="1.51"/>
  <path d="M-201,960L-199,1099L-92,1048Z" fill="#d0d0d0" stroke="#d0d0d0" stroke-width="1.51"/>
  <path d="M2106,1242L2123,1060L1966,1108Z" fill="#9e9e9e" stroke="#9e9e9e" stroke-width="1.51"/>
  <path d="M2123,1060L2159,948L1985,956Z" fill="#a2a2a2" stroke="#a2a2a2" stroke-width="1.51"/>
  <path d="M2151,755L2276,629L2149,604Z" fill="#b0b0b0" stroke="#b0b0b0" stroke-width="1.51"/>
  <path d="M-77,-18L-171,154L-56,132Z" fill="#fbfbfb" stroke="#fbfbfb" stroke-width="1.51"/>
  <path d="M-188,329L-241,32L-217,474Z" fill="#f2f2f2" stroke="#f2f2f2" stroke-width="1.51"/>
  <path d="M74,-131L-77,-18L92,-12Z" fill="#fefefe" stroke="#fefefe" stroke-width="1.51"/>
  <path d="M2142,28L1998,-26L2000,135Z" fill="#cccccc" stroke="#cccccc" stroke-width="1.51"/>
  <path d="M2261,310L2108,148L2110,312Z" fill="#c2c2c2" stroke="#c2c2c2" stroke-width="1.51"/>
  <path d="M2110,312L2108,148L2000,135Z" fill="#c5c5c5" stroke="#c5c5c5" stroke-width="1.51"/>
  <path d="M-32,1236L-195,1241L230,1271Z" fill="#cdcdcd" stroke="#cdcdcd" stroke-width="1.51"/>
  <path d="M-199,1099L-195,1241L-32,1236Z" fill="#cdcdcd" stroke="#cdcdcd" stroke-width="1.51"/>
  <path d="M-228,746L-195,1241L-199,1099Z" fill="#d0d0d0" stroke="#d0d0d0" stroke-width="1.51"/>
  <path d="M2004,1278L2106,1242L1966,1108Z" fill="#9e9e9e" stroke="#9e9e9e" stroke-width="1.51"/>
  <path d="M2300,918L2151,755L2159,948Z" fill="#a7a7a7" stroke="#a7a7a7" stroke-width="1.51"/>
  <path d="M74,-131L-32,-153L-77,-18Z" fill="#ffffff" stroke="#ffffff" stroke-width="1.51"/>
  <path d="M-77,-18L-241,32L-171,154Z" fill="#fcfcfc" stroke="#fcfcfc" stroke-width="1.51"/>
  <path d="M232,-175L-32,-153L74,-131Z" fill="#fcfcfc" stroke="#fcfcfc" stroke-width="1.51"/>
  <path d="M2148,434L2261,310L2110,312Z" fill="#bdbdbd" stroke="#bdbdbd" stroke-width="1.51"/>
  <path d="M2313,790L2276,629L2151,755Z" fill="#adadad" stroke="#adadad" stroke-width="1.51"/>
  <path d="M2313,790L2151,755L2300,918Z" fill="#a9a9a9" stroke="#a9a9a9" stroke-width="1.51"/>
  <path d="M2276,629L2277,491L2149,604Z" fill="#b4b4b4" stroke="#b4b4b4" stroke-width="1.51"/>
  <path d="M2140,-161L1995,-167L1998,-26Z" fill="#cdcdcd" stroke="#cdcdcd" stroke-width="1.51"/>
  <path d="M1998,-26L1995,-167L1839,-132Z" fill="#cdcdcd" stroke="#cdcdcd" stroke-width="1.51"/>
  <path d="M1839,-132L1995,-167L1640,-148Z" fill="#d0d0d0" stroke="#d0d0d0" stroke-width="1.51"/>
  <path d="M2142,28L2000,135L2108,148Z" fill="#c9c9c9" stroke="#c9c9c9" stroke-width="1.51"/>
  <path d="M2273,121L2142,28L2108,148Z" fill="#c9c9c9" stroke="#c9c9c9" stroke-width="1.51"/>
  <path d="M2277,491L2261,310L2148,434Z" fill="#bbbbbb" stroke="#bbbbbb" stroke-width="1.51"/>
  <path d="M-205,-195L-241,32L-77,-18Z" fill="#ffffff" stroke="#ffffff" stroke-width="1.51"/>
  <path d="M-171,154L-241,32L-188,329Z" fill="#f7f7f7" stroke="#f7f7f7" stroke-width="1.51"/>
  <path d="M-217,474L-241,32L-228,746Z" fill="#ececec" stroke="#ececec" stroke-width="1.51"/>
  <path d="M2300,918L2159,948L2297,1061Z" fill="#a2a2a2" stroke="#a2a2a2" stroke-width="1.51"/>
  <path d="M2276,629L2313,790L2277,491Z" fill="#b1b1b1" stroke="#b1b1b1" stroke-width="1.51"/>
  <path d="M2277,491L2273,121L2261,310Z" fill="#c0c0c0" stroke="#c0c0c0" stroke-width="1.51"/>
  <path d="M2297,1061L2159,948L2123,1060Z" fill="#a0a0a0" stroke="#a0a0a0" stroke-width="1.51"/>
  <path d="M2300,918L2297,1061L2313,790Z" fill="#a5a5a5" stroke="#a5a5a5" stroke-width="1.51"/>
  <path d="M2295,1223L2297,1061L2123,1060Z" fill="#9e9e9e" stroke="#9e9e9e" stroke-width="1.51"/>
  <path d="M2142,28L2140,-161L1998,-26Z" fill="#cdcdcd" stroke="#cdcdcd" stroke-width="1.51"/>
  <path d="M2261,310L2273,121L2108,148Z" fill="#c5c5c5" stroke="#c5c5c5" stroke-width="1.51"/>
  <path d="M2313,790L2273,121L2277,491Z" fill="#b9b9b9" stroke="#b9b9b9" stroke-width="1.51"/>
  <path d="M2106,1242L2295,1223L2123,1060Z" fill="#9e9e9e" stroke="#9e9e9e" stroke-width="1.51"/>
  <path d="M2297,1061L2295,1223L2313,790Z" fill="#a0a0a0" stroke="#a0a0a0" stroke-width="1.51"/>
  <path d="M2004,1278L2295,1223L2106,1242Z" fill="#9e9e9e" stroke="#9e9e9e" stroke-width="1.51"/>
  <path d="M2275,-29L2140,-161L2142,28Z" fill="#cdcdcd" stroke="#cdcdcd" stroke-width="1.51"/>
  <path d="M-32,-153L-205,-195L-77,-18Z" fill="#ffffff" stroke="#ffffff" stroke-width="1.51"/>
  <path d="M232,-175L-205,-195L-32,-153Z" fill="#ffffff" stroke="#ffffff" stroke-width="1.51"/>
  <path d="M1020,-198L-205,-195L232,-175Z" fill="#f6f6f6" stroke="#f6f6f6" stroke-width="1.51"/>
  <path d="M2273,121L2275,-29L2142,28Z" fill="#cccccc" stroke="#cccccc" stroke-width="1.51"/>
  <path d="M2313,790L2275,-29L2273,121Z" fill="#c0c0c0" stroke="#c0c0c0" stroke-width="1.51"/>
  <path d="M2275,-29L2269,-129L2140,-161Z" fill="#cdcdcd" stroke="#cdcdcd" stroke-width="1.51"/>
</svg>